<svg width="54" height="12" viewBox="0 0 54 12" fill="none" xmlns="http://www.w3.org/2000/svg">
<path d="M2.62852 3.46875H1.02696V11.1484H2.62852V3.46875ZM2.79258 1.07031C2.79258 0.796875 2.69883 0.570312 2.51915 0.390625C2.33165 0.203125 2.10508 0.117188 1.83165 0.117188C1.5504 0.117188 1.32383 0.203125 1.14415 0.390625C0.956646 0.570312 0.870708 0.796875 0.870708 1.07031C0.870708 1.35156 0.956646 1.57812 1.14415 1.75781C1.32383 1.94531 1.5504 2.03125 1.83165 2.03125C2.10508 2.03125 2.33165 1.94531 2.51915 1.75781C2.69883 1.57812 2.79258 1.35156 2.79258 1.07031ZM14.8707 11.1484H16.4723V6.67188C16.4723 5.57812 16.2145 4.74219 15.6988 4.16406C15.1832 3.59375 14.4801 3.30469 13.5816 3.30469C13.2535 3.30469 12.941 3.35156 12.6363 3.44531C12.3316 3.53906 12.0816 3.64062 11.8941 3.75C11.7066 3.85938 11.5348 3.99219 11.3707 4.14062C11.2066 4.29688 11.0973 4.39844 11.0504 4.45312C11.0035 4.51562 10.9645 4.55469 10.941 4.58594L10.8629 4.46094C10.816 4.38281 10.7301 4.27344 10.6051 4.14062C10.4801 4.01562 10.3395 3.88281 10.1676 3.75781C10.0035 3.63281 9.78477 3.52344 9.50352 3.4375C9.22227 3.35156 8.93321 3.30469 8.62071 3.30469C8.2379 3.30469 7.87071 3.39844 7.51133 3.57031C7.15196 3.75 6.91758 3.89062 6.80821 4C6.69883 4.10938 6.60508 4.19531 6.54258 4.26562V3.46875H4.94102V11.1484H6.54258V6.99219C6.54258 6.29688 6.71446 5.75 7.0504 5.35156C7.38633 4.95312 7.8004 4.75 8.3004 4.75C8.79258 4.75 9.18321 4.91406 9.47227 5.24219C9.76133 5.57031 9.90196 6.04688 9.90196 6.67188V11.1484H11.5035V6.99219C11.5035 6.29688 11.6754 5.75 12.0113 5.35156C12.3473 4.95312 12.7613 4.75 13.2613 4.75C13.7535 4.75 14.1441 4.91406 14.4332 5.24219C14.7223 5.57031 14.8629 6.04688 14.8629 6.67188L14.8707 11.1484ZM24.6363 7.3125C24.6363 8.03125 24.3941 8.63281 23.9254 9.125C23.4488 9.625 22.8863 9.86719 22.2379 9.86719C21.5816 9.86719 21.0191 9.625 20.5426 9.125C20.066 8.63281 19.8316 8.03125 19.8316 7.3125C19.8316 6.59375 20.066 5.99219 20.5426 5.49219C21.0191 5 21.5816 4.75 22.2379 4.75C22.8863 4.75 23.4488 5 23.9254 5.49219C24.3941 5.99219 24.6363 6.59375 24.6363 7.3125ZM18.2379 7.3125C18.2379 8.39062 18.6285 9.32031 19.4254 10.1172C20.2223 10.9141 21.1598 11.3125 22.2379 11.3125C23.316 11.3125 24.2457 10.9141 25.0426 10.1172C25.8395 9.32031 26.2379 8.39062 26.2379 7.3125C26.2379 6.23438 25.8395 5.29688 25.0426 4.5C24.2457 3.70312 23.316 3.30469 22.2379 3.30469C21.1598 3.30469 20.2223 3.70312 19.4254 4.5C18.6285 5.29688 18.2379 6.23438 18.2379 7.3125ZM31.7535 11.1484L34.8785 3.46875H33.1988L30.9566 9.07031L28.7145 3.46875H27.0348L30.1598 11.1484H31.7535ZM37.8316 3.46875H36.2301V11.1484H37.8316V3.46875ZM37.9957 1.07031C37.9957 0.796875 37.902 0.570312 37.7223 0.390625C37.5348 0.203125 37.3082 0.117188 37.0348 0.117188C36.7535 0.117188 36.527 0.203125 36.3473 0.390625C36.1598 0.570312 36.0738 0.796875 36.0738 1.07031C36.0738 1.35156 36.1598 1.57812 36.3473 1.75781C36.527 1.94531 36.7535 2.03125 37.0348 2.03125C37.3082 2.03125 37.5348 1.94531 37.7223 1.75781C37.902 1.57812 37.9957 1.35156 37.9957 1.07031ZM41.1129 2.50781C41.1129 3.14844 40.8473 3.46875 40.316 3.46875H39.5113V4.90625H40.9566V8.90625C40.9488 10.5078 41.691 11.3047 43.1832 11.3047C43.6207 11.3047 43.9957 11.2578 44.3082 11.1484V9.71094L44.191 9.74219C44.1207 9.77344 44.0191 9.80469 43.8863 9.82812C43.7535 9.85938 43.6285 9.86719 43.5035 9.86719C43.2301 9.86719 43.0035 9.78125 42.8238 9.59375C42.6363 9.41406 42.5504 9.17969 42.5504 8.89062V4.90625H44.152V3.46875H42.5504V0.90625H41.1129V2.50781ZM51.4957 7.3125C51.4957 8.03125 51.2535 8.63281 50.7848 9.125C50.3082 9.625 49.7457 9.86719 49.0973 9.86719C48.441 9.86719 47.8785 9.625 47.402 9.125C46.9254 8.63281 46.691 8.03125 46.691 7.3125C46.691 6.59375 46.9254 5.99219 47.402 5.49219C47.8785 5 48.441 4.75 49.0973 4.75C49.7457 4.75 50.3082 5 50.7848 5.49219C51.2535 5.99219 51.4957 6.59375 51.4957 7.3125ZM45.0973 7.3125C45.0973 8.39062 45.4879 9.32031 46.2848 10.1172C47.0816 10.9141 48.0191 11.3125 49.0973 11.3125C50.1754 11.3125 51.1051 10.9141 51.902 10.1172C52.6988 9.32031 53.0973 8.39062 53.0973 7.3125C53.0973 6.23438 52.6988 5.29688 51.902 4.5C51.1051 3.70312 50.1754 3.30469 49.0973 3.30469C48.0191 3.30469 47.0816 3.70312 46.2848 4.5C45.4879 5.29688 45.0973 6.23438 45.0973 7.3125Z" fill="#1A446F"/>
</svg>
